<mxfile host="app.diagrams.net" modified="2023-05-25T12:47:32.343Z" agent="5.0 (Windows NT 10.0; Win64; x64) AppleWebKit/537.36 (KHTML, like Gecko) Chrome/113.0.0.0 Safari/537.36" etag="B1D03IXeLR92hbCAcbxz" version="21.0.6" type="github">
  <diagram name="Halaman-1" id="uxyb_cdzs66O7XJ3yA1o">
    <mxGraphModel dx="375" dy="751" grid="1" gridSize="10" guides="1" tooltips="1" connect="1" arrows="1" fold="1" page="1" pageScale="1" pageWidth="1169" pageHeight="827" math="0" shadow="0">
      <root>
        <mxCell id="0" />
        <mxCell id="1" parent="0" />
        <mxCell id="gWvGB977JNlK7UX2E998-1" value="" style="ellipse;whiteSpace=wrap;html=1;aspect=fixed;" vertex="1" parent="1">
          <mxGeometry x="330" y="260" width="50" height="50" as="geometry" />
        </mxCell>
        <mxCell id="gWvGB977JNlK7UX2E998-2" value="" style="ellipse;whiteSpace=wrap;html=1;aspect=fixed;" vertex="1" parent="1">
          <mxGeometry x="335" y="265" width="40" height="40" as="geometry" />
        </mxCell>
        <mxCell id="gWvGB977JNlK7UX2E998-3" value="" style="ellipse;whiteSpace=wrap;html=1;aspect=fixed;" vertex="1" parent="1">
          <mxGeometry x="530" y="260" width="50" height="50" as="geometry" />
        </mxCell>
        <mxCell id="gWvGB977JNlK7UX2E998-4" value="" style="ellipse;whiteSpace=wrap;html=1;aspect=fixed;" vertex="1" parent="1">
          <mxGeometry x="535" y="265" width="40" height="40" as="geometry" />
        </mxCell>
        <mxCell id="gWvGB977JNlK7UX2E998-5" value="" style="ellipse;whiteSpace=wrap;html=1;aspect=fixed;" vertex="1" parent="1">
          <mxGeometry x="440" y="265" width="40" height="40" as="geometry" />
        </mxCell>
        <mxCell id="gWvGB977JNlK7UX2E998-8" value="" style="endArrow=classic;html=1;rounded=0;exitX=1;exitY=0.5;exitDx=0;exitDy=0;" edge="1" parent="1" source="gWvGB977JNlK7UX2E998-1">
          <mxGeometry width="50" height="50" relative="1" as="geometry">
            <mxPoint x="400" y="284.33" as="sourcePoint" />
            <mxPoint x="440" y="284.65999999999997" as="targetPoint" />
          </mxGeometry>
        </mxCell>
        <mxCell id="gWvGB977JNlK7UX2E998-9" value="" style="endArrow=classic;html=1;rounded=0;exitX=1;exitY=0.5;exitDx=0;exitDy=0;entryX=0;entryY=0;entryDx=0;entryDy=0;" edge="1" parent="1" source="gWvGB977JNlK7UX2E998-5" target="gWvGB977JNlK7UX2E998-3">
          <mxGeometry width="50" height="50" relative="1" as="geometry">
            <mxPoint x="500" y="290" as="sourcePoint" />
            <mxPoint x="530" y="284.33" as="targetPoint" />
            <Array as="points" />
          </mxGeometry>
        </mxCell>
        <mxCell id="gWvGB977JNlK7UX2E998-10" value="" style="endArrow=classic;html=1;rounded=0;entryX=1;entryY=1;entryDx=0;entryDy=0;exitX=0.5;exitY=1;exitDx=0;exitDy=0;" edge="1" parent="1" source="gWvGB977JNlK7UX2E998-3" target="gWvGB977JNlK7UX2E998-5">
          <mxGeometry width="50" height="50" relative="1" as="geometry">
            <mxPoint x="530" y="330" as="sourcePoint" />
            <mxPoint x="470" y="330" as="targetPoint" />
            <Array as="points" />
          </mxGeometry>
        </mxCell>
      </root>
    </mxGraphModel>
  </diagram>
</mxfile>
